<mxfile host="app.diagrams.net" modified="2021-10-18T06:12:00.371Z" agent="5.0 (Windows NT 6.2; Win64; x64) AppleWebKit/537.36 (KHTML, like Gecko) Chrome/94.0.4606.81 Safari/537.36" etag="AJ42Mi72ts1LOUbI09MJ" version="15.5.4" type="github">
  <diagram id="jyJYbjObPVyAfR9zch3Q" name="Page-1">
    <mxGraphModel dx="2264" dy="754" grid="1" gridSize="10" guides="1" tooltips="1" connect="1" arrows="1" fold="1" page="1" pageScale="1" pageWidth="850" pageHeight="1100" math="0" shadow="0">
      <root>
        <mxCell id="0" />
        <mxCell id="1" parent="0" />
        <mxCell id="-wO7Nv5HzLpEiu3-Yih5-9" value="" style="edgeStyle=orthogonalEdgeStyle;rounded=0;orthogonalLoop=1;jettySize=auto;html=1;entryX=0.5;entryY=0;entryDx=0;entryDy=0;" edge="1" parent="1" source="-wO7Nv5HzLpEiu3-Yih5-1" target="-wO7Nv5HzLpEiu3-Yih5-3">
          <mxGeometry relative="1" as="geometry">
            <mxPoint x="180" y="330" as="targetPoint" />
          </mxGeometry>
        </mxCell>
        <mxCell id="-wO7Nv5HzLpEiu3-Yih5-1" value="Octane Plugin - to be updated to handle end points" style="rounded=0;whiteSpace=wrap;html=1;" vertex="1" parent="1">
          <mxGeometry x="120" y="190" width="120" height="60" as="geometry" />
        </mxCell>
        <mxCell id="-wO7Nv5HzLpEiu3-Yih5-2" value="SAP Plugin" style="rounded=0;whiteSpace=wrap;html=1;" vertex="1" parent="1">
          <mxGeometry x="550" y="180" width="120" height="60" as="geometry" />
        </mxCell>
        <mxCell id="-wO7Nv5HzLpEiu3-Yih5-3" value="Accelerate" style="rounded=1;whiteSpace=wrap;html=1;" vertex="1" parent="1">
          <mxGeometry x="120" y="370" width="120" height="60" as="geometry" />
        </mxCell>
        <mxCell id="-wO7Nv5HzLpEiu3-Yih5-6" value="" style="edgeStyle=orthogonalEdgeStyle;rounded=0;orthogonalLoop=1;jettySize=auto;html=1;" edge="1" parent="1" source="-wO7Nv5HzLpEiu3-Yih5-5" target="-wO7Nv5HzLpEiu3-Yih5-1">
          <mxGeometry relative="1" as="geometry" />
        </mxCell>
        <mxCell id="-wO7Nv5HzLpEiu3-Yih5-5" value="Octane instance" style="rounded=0;whiteSpace=wrap;html=1;" vertex="1" parent="1">
          <mxGeometry x="120" y="70" width="120" height="60" as="geometry" />
        </mxCell>
        <mxCell id="-wO7Nv5HzLpEiu3-Yih5-11" value="Endpoints to make updates in Octane&amp;nbsp;&lt;br&gt;1. Update Charm id&lt;br&gt;2. Update status change" style="text;html=1;strokeColor=none;fillColor=none;align=center;verticalAlign=middle;whiteSpace=wrap;rounded=0;" vertex="1" parent="1">
          <mxGeometry x="-110" y="205" width="210" height="30" as="geometry" />
        </mxCell>
      </root>
    </mxGraphModel>
  </diagram>
</mxfile>
